<svg width="21" height="31" viewBox="0 0 21 31" fill="none" xmlns="http://www.w3.org/2000/svg">
<mask id="mask0_66_144" style="mask-type:luminance" maskUnits="userSpaceOnUse" x="0" y="0" width="21" height="31">
<path d="M20.0704 0.5H0V30.5H20.0704V0.5Z" fill="white"/>
</mask>
<g mask="url(#mask0_66_144)">
<path d="M10.3998 0.500004C9.27621 0.500331 8.1987 0.946157 7.40417 1.73948C6.60965 2.5328 6.16316 3.60868 6.16282 4.7306V6.65248H4.23803C3.68121 6.65201 3.12976 6.7612 2.61524 6.97375C2.10072 7.18631 1.63323 7.4981 1.23951 7.89125C0.845789 8.28437 0.533572 8.75119 0.320718 9.26493C0.107864 9.77869 -0.00144587 10.3293 -0.000959062 10.8853V15.1144H6.16183V18.9582H4.23703C3.11309 18.958 2.03511 19.4036 1.24017 20.197C0.445237 20.9904 -0.00156051 22.0664 -0.00195312 23.1887V30.4977H4.23902C4.79531 30.4975 5.34608 30.3878 5.85993 30.1749C6.37375 29.9621 6.84055 29.6503 7.2337 29.2574C7.62682 28.8644 7.93857 28.3979 8.15115 27.8845C8.3637 27.3712 8.47293 26.8212 8.47257 26.2658H8.478V23.4735L8.46665 23.475V5.68538L8.47603 5.6876V4.73134C8.47701 4.22144 8.67995 3.73263 9.04056 3.3716C9.40115 3.01056 9.89015 2.80663 10.4008 2.80428H17.7617V4.73134C17.7601 5.241 17.5565 5.7293 17.1953 6.08945C16.8342 6.4496 16.3449 6.65231 15.8344 6.65322H9.34713V8.95996H15.8334C16.9571 8.96003 18.0347 8.51442 18.8293 7.72118C19.6239 6.92793 20.0703 5.85203 20.0704 4.73011V0.499512L10.3998 0.500004ZM6.16282 12.8074H2.31175V10.8855C2.3126 10.375 2.51577 9.88563 2.87691 9.52426C3.23803 9.16291 3.72775 8.95895 4.23902 8.95701H6.16382L6.16282 12.8074ZM6.16282 26.2679C6.16198 26.7775 5.95897 27.2662 5.59825 27.6266C5.23751 27.9872 4.74843 28.1905 4.23803 28.1917H2.31076V23.19C2.31122 22.68 2.51451 22.1911 2.8759 21.8307C3.23732 21.4702 3.72725 21.2679 4.23803 21.2681H6.16282V26.2679ZM9.34713 15.1141H14.2085V17.038C14.2066 17.5476 14.0028 18.0357 13.6417 18.3958C13.2807 18.7559 12.7915 18.9586 12.2812 18.9599H9.34713V21.2681H12.2822C12.8387 21.2684 13.3898 21.1592 13.904 20.9467C14.4181 20.7342 14.8854 20.4225 15.2789 20.0296C15.6724 19.6367 15.9844 19.1702 16.1973 18.6568C16.4101 18.1434 16.5195 17.5932 16.5192 17.0375H16.5212V12.8069H9.34713V15.1141Z" fill="#18988B"/>
</g>
</svg>
