<svg width="79" height="31" viewBox="0 0 79 31" fill="none" xmlns="http://www.w3.org/2000/svg">
<mask id="mask0_66_145" style="mask-type:luminance" maskUnits="userSpaceOnUse" x="0" y="0" width="21" height="31">
<path d="M20.0704 0.5H0V30.5H20.0704V0.5Z" fill="white"/>
</mask>
<g mask="url(#mask0_66_145)">
<path d="M10.3998 0.500004C9.27621 0.500331 8.1987 0.946157 7.40417 1.73948C6.60965 2.5328 6.16316 3.60868 6.16282 4.7306V6.65248H4.23803C3.68121 6.65201 3.12976 6.7612 2.61524 6.97375C2.10072 7.18631 1.63323 7.4981 1.23951 7.89125C0.845789 8.28437 0.533572 8.75119 0.320718 9.26493C0.107864 9.77869 -0.00144587 10.3293 -0.000959062 10.8853V15.1144H6.16183V18.9582H4.23703C3.11309 18.958 2.03511 19.4036 1.24017 20.197C0.445237 20.9904 -0.00156051 22.0664 -0.00195312 23.1887V30.4977H4.23902C4.79531 30.4975 5.34608 30.3878 5.85993 30.1749C6.37375 29.9621 6.84055 29.6503 7.2337 29.2574C7.62682 28.8644 7.93857 28.3979 8.15115 27.8845C8.3637 27.3712 8.47293 26.8212 8.47257 26.2658H8.478V23.4735L8.46665 23.475V5.68538L8.47603 5.6876V4.73134C8.47701 4.22144 8.67995 3.73263 9.04056 3.3716C9.40115 3.01056 9.89015 2.80663 10.4008 2.80428H17.7617V4.73134C17.7601 5.241 17.5565 5.7293 17.1953 6.08945C16.8342 6.4496 16.3449 6.65231 15.8344 6.65322H9.34713V8.95996H15.8334C16.9571 8.96003 18.0347 8.51442 18.8293 7.72118C19.6239 6.92793 20.0703 5.85203 20.0704 4.73011V0.499512L10.3998 0.500004ZM6.16282 12.8074H2.31175V10.8855C2.3126 10.375 2.51577 9.88563 2.87691 9.52426C3.23803 9.16291 3.72775 8.95895 4.23902 8.95701H6.16382L6.16282 12.8074ZM6.16282 26.2679C6.16198 26.7775 5.95897 27.2662 5.59825 27.6266C5.23751 27.9872 4.74843 28.1905 4.23803 28.1917H2.31076V23.19C2.31122 22.68 2.51451 22.1911 2.8759 21.8307C3.23732 21.4702 3.72725 21.2679 4.23803 21.2681H6.16282V26.2679ZM9.34713 15.1141H14.2085V17.038C14.2066 17.5476 14.0028 18.0357 13.6417 18.3958C13.2807 18.7559 12.7915 18.9586 12.2812 18.9599H9.34713V21.2681H12.2822C12.8387 21.2684 13.3898 21.1592 13.904 20.9467C14.4181 20.7342 14.8854 20.4225 15.2789 20.0296C15.6724 19.6367 15.9844 19.1702 16.1973 18.6568C16.4101 18.1434 16.5195 17.5932 16.5192 17.0375H16.5212V12.8069H9.34713V15.1141Z" fill="#18988B"/>
</g>
<path d="M26.4922 6.4375L23.5391 23.5H20.1875L23.1289 6.4375H26.4922ZM30.4297 13.6914L29.9258 16.5273H23.8789L24.3828 13.6914H30.4297ZM32.3164 6.4375L31.8125 9.28516H25.1445L25.6367 6.4375H32.3164ZM36.6758 10.8203L34.4727 23.5H31.2617L33.4648 10.8203H36.6758ZM33.8867 7.59766C33.8789 7.08984 34.0391 6.66016 34.3672 6.30859C34.6953 5.95703 35.1211 5.77734 35.6445 5.76953C36.1367 5.76172 36.5469 5.91797 36.875 6.23828C37.2031 6.55859 37.3633 6.96875 37.3555 7.46875C37.3711 7.97656 37.2148 8.40625 36.8867 8.75781C36.5664 9.10938 36.1445 9.28906 35.6211 9.29688C35.1289 9.3125 34.7188 9.16016 34.3906 8.83984C34.0625 8.51172 33.8945 8.09766 33.8867 7.59766ZM41.8203 13.7031L40.1211 23.5H36.8867L39.0898 10.8203H42.1133L41.8203 13.7031ZM40.8242 16.7266L40.0859 16.7734C40.1406 16.1016 40.2656 15.4023 40.4609 14.6758C40.6562 13.9414 40.9375 13.2578 41.3047 12.625C41.6797 11.9922 42.1523 11.4883 42.7227 11.1133C43.293 10.7305 43.9922 10.5508 44.8203 10.5742C45.4766 10.5977 45.9922 10.7617 46.3672 11.0664C46.75 11.3711 47.0273 11.7695 47.1992 12.2617C47.3789 12.7461 47.4805 13.2656 47.5039 13.8203C47.5273 14.3672 47.5117 14.9062 47.457 15.4375L46.1094 23.5H42.9102L44.2461 15.4023C44.2773 15.082 44.2852 14.7656 44.2695 14.4531C44.2617 14.1328 44.1797 13.8633 44.0234 13.6445C43.875 13.4258 43.5977 13.3164 43.1914 13.3164C42.7695 13.293 42.418 13.3984 42.1367 13.6328C41.8555 13.8672 41.625 14.168 41.4453 14.5352C41.2734 14.8945 41.1367 15.2695 41.0352 15.6602C40.9414 16.0508 40.8711 16.4062 40.8242 16.7266ZM53.5742 23.7344C52.7305 23.7188 52.0078 23.5547 51.4062 23.2422C50.8047 22.9297 50.3242 22.5039 49.9648 21.9648C49.6055 21.418 49.3594 20.8008 49.2266 20.1133C49.0938 19.418 49.0664 18.6758 49.1445 17.8867L49.2617 16.8438C49.3711 16.0312 49.5625 15.2461 49.8359 14.4883C50.1094 13.7305 50.4766 13.0547 50.9375 12.4609C51.4062 11.8594 51.9805 11.3906 52.6602 11.0547C53.3398 10.7188 54.1367 10.5586 55.0508 10.5742C55.9258 10.5977 56.6328 10.793 57.1719 11.1602C57.7188 11.5195 58.1289 11.9961 58.4023 12.5898C58.6836 13.1836 58.8555 13.8438 58.918 14.5703C58.9805 15.2891 58.9648 16.0156 58.8711 16.75L58.6602 18.25H50.3984L50.8086 15.9414L55.8125 15.9531L55.8711 15.625C55.9258 15.2969 55.9453 14.957 55.9297 14.6055C55.9141 14.2461 55.8203 13.9453 55.6484 13.7031C55.4766 13.4531 55.1797 13.3164 54.7578 13.293C54.2969 13.2695 53.9219 13.375 53.6328 13.6094C53.3516 13.8359 53.1328 14.1367 52.9766 14.5117C52.8203 14.8867 52.707 15.2812 52.6367 15.6953C52.5742 16.1016 52.5234 16.4844 52.4844 16.8438L52.3555 17.8984C52.3164 18.25 52.3008 18.6055 52.3086 18.9648C52.3164 19.3164 52.3633 19.6445 52.4492 19.9492C52.543 20.2539 52.707 20.5039 52.9414 20.6992C53.1836 20.8945 53.5273 20.9961 53.9727 21.0039C54.5195 21.0195 55.0234 20.918 55.4844 20.6992C55.9531 20.4805 56.3906 20.1992 56.7969 19.8555L57.8867 21.8594C57.5586 22.2969 57.1602 22.6602 56.6914 22.9492C56.2227 23.2305 55.7148 23.4336 55.168 23.5586C54.6289 23.6836 54.0977 23.7422 53.5742 23.7344ZM64.4609 13.8203L62.7852 23.5H59.5859L61.7891 10.8203H64.8125L64.4609 13.8203ZM67.8242 10.7148L67.3906 13.9844C67.2188 13.9453 67.043 13.918 66.8633 13.9023C66.6914 13.8789 66.5234 13.8672 66.3594 13.8672C65.9453 13.8594 65.5898 13.9258 65.293 14.0664C65.0039 14.207 64.7617 14.4062 64.5664 14.6641C64.3711 14.9141 64.207 15.1992 64.0742 15.5195C63.9492 15.8398 63.8516 16.1719 63.7812 16.5156L63.2188 16.2812C63.2812 15.7891 63.3789 15.2148 63.5117 14.5586C63.6523 13.9023 63.8516 13.2695 64.1094 12.6602C64.375 12.0508 64.7266 11.5469 65.1641 11.1484C65.6016 10.75 66.1523 10.5508 66.8164 10.5508C66.9961 10.5586 67.1641 10.5781 67.3203 10.6094C67.4844 10.6406 67.6523 10.6758 67.8242 10.7148ZM70.8008 21.8711L75.2539 10.8203H78.7461L72.2188 25.4102C72.0312 25.832 71.8203 26.2383 71.5859 26.6289C71.3594 27.0195 71.0938 27.3672 70.7891 27.6719C70.4844 27.9766 70.1289 28.2148 69.7227 28.3867C69.3242 28.5664 68.875 28.6562 68.375 28.6562C68.125 28.6562 67.8828 28.6289 67.6484 28.5742C67.4219 28.5273 67.1875 28.4727 66.9453 28.4102L67.2031 25.8438C67.2734 25.8516 67.3398 25.8594 67.4023 25.8672C67.4648 25.875 67.5273 25.8789 67.5898 25.8789C67.9414 25.8867 68.2422 25.8359 68.4922 25.7266C68.75 25.625 68.9648 25.4727 69.1367 25.2695C69.3164 25.0664 69.4727 24.8125 69.6055 24.5078L70.8008 21.8711ZM72.1133 10.8203L72.4531 20.0781L72.2539 23.6289L70.1328 23.8516L68.7852 10.8203H72.1133Z" fill="#C2702A"/>
</svg>
